<mxfile host="app.diagrams.net" modified="2023-02-13T12:53:39.253Z" agent="5.0 (Windows NT 10.0; Win64; x64) AppleWebKit/537.36 (KHTML, like Gecko) Chrome/110.0.0.0 Safari/537.36" etag="HJA6UHG_BAUpu0wAe8mu" version="20.8.18" type="github">
  <diagram id="kWV1w4FAC4IXIcKnAsgC" name="第 1 页">
    <mxGraphModel dx="1050" dy="549" grid="1" gridSize="10" guides="1" tooltips="1" connect="1" arrows="1" fold="1" page="1" pageScale="1" pageWidth="827" pageHeight="1169" math="0" shadow="0">
      <root>
        <mxCell id="0" />
        <mxCell id="1" parent="0" />
        <mxCell id="hsqiQFNtVwB-LhybfyuJ-1" value="" style="endArrow=none;dashed=1;rounded=0;html=1;strokeColor=#666666;" parent="1" edge="1">
          <mxGeometry width="50" height="50" relative="1" as="geometry">
            <mxPoint x="40" y="40" as="sourcePoint" />
            <mxPoint x="790" y="40" as="targetPoint" />
          </mxGeometry>
        </mxCell>
        <mxCell id="hsqiQFNtVwB-LhybfyuJ-2" value="" style="endArrow=none;dashed=1;html=1;rounded=0;strokeColor=#666666;" parent="1" edge="1">
          <mxGeometry width="50" height="50" relative="1" as="geometry">
            <mxPoint x="40" y="1130" as="sourcePoint" />
            <mxPoint x="790" y="1130" as="targetPoint" />
          </mxGeometry>
        </mxCell>
        <mxCell id="hsqiQFNtVwB-LhybfyuJ-3" value="" style="endArrow=none;dashed=1;html=1;rounded=0;strokeColor=#666666;" parent="1" edge="1">
          <mxGeometry width="50" height="50" relative="1" as="geometry">
            <mxPoint x="40" y="40" as="sourcePoint" />
            <mxPoint x="40" y="1130" as="targetPoint" />
          </mxGeometry>
        </mxCell>
        <mxCell id="hsqiQFNtVwB-LhybfyuJ-4" value="" style="endArrow=none;dashed=1;html=1;rounded=0;strokeColor=#666666;" parent="1" edge="1">
          <mxGeometry width="50" height="50" relative="1" as="geometry">
            <mxPoint x="790" y="40" as="sourcePoint" />
            <mxPoint x="790" y="1130" as="targetPoint" />
          </mxGeometry>
        </mxCell>
        <mxCell id="hsqiQFNtVwB-LhybfyuJ-15" value="" style="endArrow=none;dashed=1;html=1;rounded=0;strokeColor=#666666;" parent="1" edge="1">
          <mxGeometry width="50" height="50" relative="1" as="geometry">
            <mxPoint x="280" y="90" as="sourcePoint" />
            <mxPoint x="280" y="1128.5" as="targetPoint" />
          </mxGeometry>
        </mxCell>
        <mxCell id="hsqiQFNtVwB-LhybfyuJ-7" value="anngreen@qq.com" style="text;html=1;strokeColor=none;fillColor=none;align=left;verticalAlign=middle;whiteSpace=wrap;rounded=0;fontFamily=Inter;fontSize=13;fontColor=#404964;" parent="1" vertex="1">
          <mxGeometry x="80" y="228" width="170" height="20" as="geometry" />
        </mxCell>
        <mxCell id="hsqiQFNtVwB-LhybfyuJ-9" value="" style="shape=image;aspect=fixed;image=data:image/svg+xml,PD94bWwgdmVyc2lvbj0iMS4wIiBzdGFuZGFsb25lPSJubyI/PjwhRE9DVFlQRSBzdmcgUFVCTElDICItLy9XM0MvL0RURCBTVkcgMS4xLy9FTiIgImh0dHA6Ly93d3cudzMub3JnL0dyYXBoaWNzL1NWRy8xLjEvRFREL3N2ZzExLmR0ZCI+PHN2ZyB0PSIxNjUzMzczOTQ3NzM5IiBjbGFzcz0iaWNvbiIgdmlld0JveD0iMCAwIDEwMjQgMTAyNCIgdmVyc2lvbj0iMS4xIiB4bWxucz0iaHR0cDovL3d3dy53My5vcmcvMjAwMC9zdmciIHAtaWQ9IjcwMjAiIHhtbG5zOnhsaW5rPSJodHRwOi8vd3d3LnczLm9yZy8xOTk5L3hsaW5rIiB3aWR0aD0iMjAwIiBoZWlnaHQ9IjIwMCI+PGRlZnM+PHN0eWxlIHR5cGU9InRleHQvY3NzIj5AZm9udC1mYWNlIHsgZm9udC1mYW1pbHk6IGZlZWRiYWNrLWljb25mb250OyBzcmM6IHVybCgiLy9hdC5hbGljZG4uY29tL3QvZm9udF8xMDMxMTU4X3U2OXc4eWh4ZHUud29mZjI/dD0xNjMwMDMzNzU5OTQ0IikgZm9ybWF0KCJ3b2ZmMiIpLCB1cmwoIi8vYXQuYWxpY2RuLmNvbS90L2ZvbnRfMTAzMTE1OF91Njl3OHloeGR1LndvZmY/dD0xNjMwMDMzNzU5OTQ0IikgZm9ybWF0KCJ3b2ZmIiksIHVybCgiLy9hdC5hbGljZG4uY29tL3QvZm9udF8xMDMxMTU4X3U2OXc4eWh4ZHUudHRmP3Q9MTYzMDAzMzc1OTk0NCIpIGZvcm1hdCgidHJ1ZXR5cGUiKTsgfQo8L3N0eWxlPjwvZGVmcz48cGF0aCBkPSJNODc0LjY2NjY2NyAzNzUuMTg5MzMzVjc0Ni42NjY2NjdhNjQgNjQgMCAwIDEtNjQgNjRIMjEzLjMzMzMzM2E2NCA2NCAwIDAgMS02NC02NFYzNzUuMTg5MzMzbDY0IDU0LjI1MDY2N1Y3NDYuNjY2NjY3aDU5Ny4zMzMzMzRWNDI5LjQ0bDY0LTU0LjI1MDY2N3pNODEwLjY2NjY2NyAyMTMuMzMzMzMzYTY0Ljc4OTMzMyA2NC43ODkzMzMgMCAwIDEgMjIuODI2NjY2IDQuMTgxMzM0IDYzLjYxNiA2My42MTYgMCAwIDEgMjYuNzk0NjY3IDE5LjQxMzMzMyA2NC4zMiA2NC4zMiAwIDAgMSA5LjM0NCAxNS40NjY2NjdjMi43NzMzMzMgNi41NzA2NjcgNC40OCAxMy42OTYgNC45MDY2NjcgMjEuMTg0TDg3NC42NjY2NjcgMjc3LjMzMzMzM3YyMS4zMzMzMzRMNTUzLjUzNiA1NzIuNTg2NjY3YTY0IDY0IDAgMCAxLTc5Ljg5MzMzMyAyLjUzODY2NmwtMy4xNzg2NjctMi41NkwxNDkuMzMzMzMzIDI5OC42NjY2Njd2LTIxLjMzMzMzNGE2My43ODY2NjcgNjMuNzg2NjY3IDAgMCAxIDM1LjEzNi01Ny4xMzA2NjZBNjMuODcyIDYzLjg3MiAwIDAgMSAyMTMuMzMzMzMzIDIxMy4zMzMzMzNoNTk3LjMzMzMzNHogbS05LjYgNjRoLTU3OC4xMzMzMzRMNTEyIDUyMy44ODI2NjcgODAxLjA2NjY2NyAyNzcuMzMzMzMzeiIgcC1pZD0iNzAyMSIgZmlsbD0iIzRENEQ0RCI+PC9wYXRoPjwvc3ZnPg==;" parent="1" vertex="1">
          <mxGeometry x="61" y="230" width="18" height="18" as="geometry" />
        </mxCell>
        <mxCell id="hsqiQFNtVwB-LhybfyuJ-8" value="18456772638" style="text;html=1;strokeColor=none;fillColor=none;align=left;verticalAlign=middle;whiteSpace=wrap;rounded=0;fontFamily=Inter;fontSize=13;fontColor=#404964;fontStyle=0" parent="1" vertex="1">
          <mxGeometry x="81" y="166" width="142" height="20" as="geometry" />
        </mxCell>
        <mxCell id="hsqiQFNtVwB-LhybfyuJ-18" value="基本信息" style="text;html=1;strokeColor=none;fillColor=none;align=left;verticalAlign=middle;whiteSpace=wrap;rounded=0;fontFamily=Source Han Sans;fontSize=21;fontColor=#13273E;fontStyle=1" parent="1" vertex="1">
          <mxGeometry x="57.5" y="60" width="105" height="30" as="geometry" />
        </mxCell>
        <mxCell id="hsqiQFNtVwB-LhybfyuJ-20" value="" style="endArrow=none;html=1;rounded=0;fontFamily=宋体-简;fontSize=16;fontColor=#2B4259;strokeColor=#404964;" parent="1" edge="1">
          <mxGeometry width="50" height="50" relative="1" as="geometry">
            <mxPoint x="59.5" y="93" as="sourcePoint" />
            <mxPoint x="259.5" y="93" as="targetPoint" />
          </mxGeometry>
        </mxCell>
        <mxCell id="hsqiQFNtVwB-LhybfyuJ-27" value="技能" style="text;html=1;strokeColor=none;fillColor=none;align=left;verticalAlign=middle;whiteSpace=wrap;rounded=0;fontFamily=Source Han Sans;fontSize=21;fontColor=#13273E;fontStyle=1" parent="1" vertex="1">
          <mxGeometry x="61" y="478" width="50" height="30" as="geometry" />
        </mxCell>
        <mxCell id="hsqiQFNtVwB-LhybfyuJ-29" value="" style="endArrow=none;html=1;rounded=0;fontFamily=宋体-简;fontSize=16;fontColor=#2B4259;strokeColor=#404964;" parent="1" edge="1">
          <mxGeometry width="50" height="50" relative="1" as="geometry">
            <mxPoint x="62" y="510" as="sourcePoint" />
            <mxPoint x="262" y="510" as="targetPoint" />
          </mxGeometry>
        </mxCell>
        <mxCell id="hsqiQFNtVwB-LhybfyuJ-23" value="奖项" style="text;html=1;strokeColor=none;fillColor=none;align=left;verticalAlign=middle;whiteSpace=wrap;rounded=0;fontFamily=Source Han Sans;fontSize=21;fontColor=#13273E;fontStyle=1" parent="1" vertex="1">
          <mxGeometry x="61" y="673.77" width="50" height="30" as="geometry" />
        </mxCell>
        <mxCell id="hsqiQFNtVwB-LhybfyuJ-25" value="" style="endArrow=none;html=1;rounded=0;fontFamily=宋体-简;fontSize=16;fontColor=#2B4259;strokeColor=#404964;" parent="1" edge="1">
          <mxGeometry width="50" height="50" relative="1" as="geometry">
            <mxPoint x="62" y="705.77" as="sourcePoint" />
            <mxPoint x="262" y="705.77" as="targetPoint" />
          </mxGeometry>
        </mxCell>
        <mxCell id="hsqiQFNtVwB-LhybfyuJ-31" value="&lt;span style=&quot;font-size: 15px;&quot;&gt;华中科技大学&lt;/span&gt;" style="text;html=1;strokeColor=none;fillColor=none;align=left;verticalAlign=middle;whiteSpace=wrap;rounded=0;fontFamily=Source Han Sans;fontSize=15;fontColor=#404964;fontStyle=1" parent="1" vertex="1">
          <mxGeometry x="60" y="338" width="120" height="30" as="geometry" />
        </mxCell>
        <mxCell id="hsqiQFNtVwB-LhybfyuJ-33" value="本科&amp;nbsp; &amp;nbsp; 计算机科学与技术" style="text;html=1;strokeColor=none;fillColor=none;align=left;verticalAlign=middle;whiteSpace=wrap;rounded=0;fontFamily=Source Han Sans;fontSize=12;fontColor=#6D7684;fontStyle=0" parent="1" vertex="1">
          <mxGeometry x="60" y="369" width="199" height="23" as="geometry" />
        </mxCell>
        <mxCell id="hsqiQFNtVwB-LhybfyuJ-35" value="2017 - 2021" style="text;html=1;strokeColor=none;fillColor=none;align=right;verticalAlign=middle;whiteSpace=wrap;rounded=0;fontFamily=Source Han Sans;fontSize=15;fontColor=#6D7684;fontStyle=0" parent="1" vertex="1">
          <mxGeometry x="178" y="344" width="83" height="20" as="geometry" />
        </mxCell>
        <mxCell id="hsqiQFNtVwB-LhybfyuJ-38" value="成绩&amp;nbsp; &amp;nbsp; 88.8 / 100.0" style="text;html=1;strokeColor=none;fillColor=none;align=left;verticalAlign=middle;whiteSpace=wrap;rounded=0;fontFamily=Source Han Sans;fontSize=12;fontColor=#6D7684;fontStyle=0" parent="1" vertex="1">
          <mxGeometry x="60" y="392" width="199" height="23" as="geometry" />
        </mxCell>
        <mxCell id="hsqiQFNtVwB-LhybfyuJ-39" value="排名&amp;nbsp; &amp;nbsp; 50 / 311&amp;nbsp; ( Top 20% )" style="text;html=1;strokeColor=none;fillColor=none;align=left;verticalAlign=middle;whiteSpace=wrap;rounded=0;fontFamily=Source Han Sans;fontSize=12;fontColor=#6D7684;fontStyle=0" parent="1" vertex="1">
          <mxGeometry x="60" y="415" width="199" height="23" as="geometry" />
        </mxCell>
        <mxCell id="hsqiQFNtVwB-LhybfyuJ-40" value="&lt;span style=&quot;font-size: 15px;&quot;&gt;中国人民大学&lt;/span&gt;" style="text;html=1;strokeColor=none;fillColor=none;align=left;verticalAlign=middle;whiteSpace=wrap;rounded=0;fontFamily=Source Han Sans;fontSize=15;fontColor=#404964;fontStyle=1" parent="1" vertex="1">
          <mxGeometry x="60" y="718.77" width="119" height="30" as="geometry" />
        </mxCell>
        <mxCell id="hsqiQFNtVwB-LhybfyuJ-41" value="&lt;span style=&quot;font-size: 15px;&quot;&gt;华中科技大学&lt;/span&gt;" style="text;html=1;strokeColor=none;fillColor=none;align=left;verticalAlign=middle;whiteSpace=wrap;rounded=0;fontFamily=Source Han Sans;fontSize=15;fontColor=#404964;fontStyle=1" parent="1" vertex="1">
          <mxGeometry x="60" y="777.77" width="120" height="30" as="geometry" />
        </mxCell>
        <mxCell id="hsqiQFNtVwB-LhybfyuJ-42" value="研究生学业奖学金" style="text;html=1;strokeColor=none;fillColor=none;align=left;verticalAlign=middle;whiteSpace=wrap;rounded=0;fontFamily=Source Han Sans;fontSize=12;fontColor=#6D7684;fontStyle=0" parent="1" vertex="1">
          <mxGeometry x="60" y="748.77" width="143" height="23" as="geometry" />
        </mxCell>
        <mxCell id="hsqiQFNtVwB-LhybfyuJ-44" value="2021 - 2023" style="text;html=1;strokeColor=none;fillColor=none;align=right;verticalAlign=middle;whiteSpace=wrap;rounded=0;fontFamily=Source Han Sans;fontSize=15;fontColor=#6D7684;fontStyle=0" parent="1" vertex="1">
          <mxGeometry x="178" y="723.77" width="85" height="20" as="geometry" />
        </mxCell>
        <mxCell id="hsqiQFNtVwB-LhybfyuJ-45" value="2017 - 2021" style="text;html=1;strokeColor=none;fillColor=none;align=right;verticalAlign=middle;whiteSpace=wrap;rounded=0;fontFamily=Source Han Sans;fontSize=15;fontColor=#6D7684;fontStyle=0" parent="1" vertex="1">
          <mxGeometry x="178" y="782.77" width="85" height="20" as="geometry" />
        </mxCell>
        <mxCell id="hsqiQFNtVwB-LhybfyuJ-48" value="三好学生奖学金" style="text;html=1;strokeColor=none;fillColor=none;align=left;verticalAlign=middle;whiteSpace=wrap;rounded=0;fontFamily=Source Han Sans;fontSize=12;fontColor=#6D7684;fontStyle=0" parent="1" vertex="1">
          <mxGeometry x="60" y="807.77" width="143" height="23" as="geometry" />
        </mxCell>
        <mxCell id="hsqiQFNtVwB-LhybfyuJ-49" value="三好学生奖学金" style="text;html=1;strokeColor=none;fillColor=none;align=left;verticalAlign=middle;whiteSpace=wrap;rounded=0;fontFamily=Source Han Sans;fontSize=12;fontColor=#6D7684;fontStyle=0" parent="1" vertex="1">
          <mxGeometry x="60" y="830.77" width="143" height="23" as="geometry" />
        </mxCell>
        <mxCell id="hsqiQFNtVwB-LhybfyuJ-51" value="三好学生奖学金" style="text;html=1;strokeColor=none;fillColor=none;align=left;verticalAlign=middle;whiteSpace=wrap;rounded=0;fontFamily=Source Han Sans;fontSize=12;fontColor=#767B83;fontStyle=0" parent="1" vertex="1">
          <mxGeometry x="60" y="853.77" width="143" height="23" as="geometry" />
        </mxCell>
        <mxCell id="hsqiQFNtVwB-LhybfyuJ-52" value="国家奖学金" style="text;html=1;strokeColor=none;fillColor=none;align=left;verticalAlign=middle;whiteSpace=wrap;rounded=0;fontFamily=Source Han Sans;fontSize=12;fontColor=#404964;fontStyle=1" parent="1" vertex="1">
          <mxGeometry x="60" y="876.77" width="143" height="23" as="geometry" />
        </mxCell>
        <mxCell id="hsqiQFNtVwB-LhybfyuJ-53" value="2021" style="text;html=1;strokeColor=none;fillColor=none;align=right;verticalAlign=middle;whiteSpace=wrap;rounded=0;fontFamily=Source Han Sans;fontSize=12;fontColor=#6D7684;fontStyle=0" parent="1" vertex="1">
          <mxGeometry x="233" y="750.27" width="30" height="20" as="geometry" />
        </mxCell>
        <mxCell id="hsqiQFNtVwB-LhybfyuJ-55" value="2020" style="text;html=1;strokeColor=none;fillColor=none;align=right;verticalAlign=middle;whiteSpace=wrap;rounded=0;fontFamily=Source Han Sans;fontSize=12;fontColor=#6D7684;fontStyle=0" parent="1" vertex="1">
          <mxGeometry x="232" y="809.77" width="30" height="20" as="geometry" />
        </mxCell>
        <mxCell id="hsqiQFNtVwB-LhybfyuJ-56" value="2019" style="text;html=1;strokeColor=none;fillColor=none;align=right;verticalAlign=middle;whiteSpace=wrap;rounded=0;fontFamily=Source Han Sans;fontSize=12;fontColor=#6D7684;fontStyle=0" parent="1" vertex="1">
          <mxGeometry x="232" y="832.77" width="30" height="20" as="geometry" />
        </mxCell>
        <mxCell id="hsqiQFNtVwB-LhybfyuJ-58" value="2018" style="text;html=1;strokeColor=none;fillColor=none;align=right;verticalAlign=middle;whiteSpace=wrap;rounded=0;fontFamily=Source Han Sans;fontSize=12;fontColor=#6D7684;fontStyle=0" parent="1" vertex="1">
          <mxGeometry x="232" y="855.77" width="30" height="20" as="geometry" />
        </mxCell>
        <mxCell id="hsqiQFNtVwB-LhybfyuJ-59" value="2018" style="text;html=1;strokeColor=none;fillColor=none;align=right;verticalAlign=middle;whiteSpace=wrap;rounded=0;fontFamily=Source Han Sans;fontSize=12;fontColor=#404964;fontStyle=1" parent="1" vertex="1">
          <mxGeometry x="232" y="878.77" width="30" height="20" as="geometry" />
        </mxCell>
        <mxCell id="csp5jKro6aII4pgKmo1C-1" value="技能清单" style="text;html=1;strokeColor=none;fillColor=none;align=left;verticalAlign=middle;whiteSpace=wrap;rounded=0;fontFamily=Source Han Sans;fontSize=21;fontColor=#13273E;fontStyle=1" parent="1" vertex="1">
          <mxGeometry x="306" y="60" width="94" height="30" as="geometry" />
        </mxCell>
        <mxCell id="csp5jKro6aII4pgKmo1C-3" value="" style="endArrow=none;html=1;rounded=0;fontFamily=宋体-简;fontSize=16;fontColor=#2B4259;strokeColor=#404964;" parent="1" edge="1">
          <mxGeometry width="50" height="50" relative="1" as="geometry">
            <mxPoint x="303" y="93" as="sourcePoint" />
            <mxPoint x="769" y="95" as="targetPoint" />
          </mxGeometry>
        </mxCell>
        <mxCell id="csp5jKro6aII4pgKmo1C-4" value="实习经历" style="text;html=1;strokeColor=none;fillColor=none;align=left;verticalAlign=middle;whiteSpace=wrap;rounded=0;fontFamily=Source Han Sans;fontSize=21;fontColor=#13273E;fontStyle=1" parent="1" vertex="1">
          <mxGeometry x="306" y="325" width="104" height="30" as="geometry" />
        </mxCell>
        <mxCell id="csp5jKro6aII4pgKmo1C-6" value="" style="endArrow=none;html=1;rounded=0;fontFamily=宋体-简;fontSize=16;fontColor=#2B4259;strokeColor=#404964;" parent="1" edge="1">
          <mxGeometry width="50" height="50" relative="1" as="geometry">
            <mxPoint x="303" y="360" as="sourcePoint" />
            <mxPoint x="769" y="360" as="targetPoint" />
          </mxGeometry>
        </mxCell>
        <mxCell id="csp5jKro6aII4pgKmo1C-7" value="项目经历" style="text;html=1;strokeColor=none;fillColor=none;align=left;verticalAlign=middle;whiteSpace=wrap;rounded=0;fontFamily=Source Han Sans;fontSize=21;fontColor=#13273E;fontStyle=1" parent="1" vertex="1">
          <mxGeometry x="306" y="465" width="104" height="30" as="geometry" />
        </mxCell>
        <mxCell id="csp5jKro6aII4pgKmo1C-9" value="" style="endArrow=none;html=1;rounded=0;fontFamily=宋体-简;fontSize=16;fontColor=#2B4259;strokeColor=#404964;" parent="1" edge="1">
          <mxGeometry width="50" height="50" relative="1" as="geometry">
            <mxPoint x="303" y="500" as="sourcePoint" />
            <mxPoint x="769" y="500" as="targetPoint" />
          </mxGeometry>
        </mxCell>
        <mxCell id="csp5jKro6aII4pgKmo1C-24" value="&lt;div&gt;2022.06—12 安徽百得思维信息科技有限公司 学习机研发部前端组&lt;/div&gt;" style="text;html=1;strokeColor=none;fillColor=none;align=left;verticalAlign=middle;whiteSpace=wrap;rounded=0;fontSize=15;fontFamily=Source Han Sans;fontStyle=1;fontColor=#404964;" parent="1" vertex="1">
          <mxGeometry x="303" y="367" width="467" height="20" as="geometry" />
        </mxCell>
        <mxCell id="csp5jKro6aII4pgKmo1C-29" value="&lt;font style=&quot;font-size: 12px;&quot;&gt;&lt;span style=&quot;line-height: 1.6; font-size: 12px;&quot;&gt;&lt;br&gt;&lt;/span&gt;&lt;/font&gt;" style="text;html=1;strokeColor=none;fillColor=none;align=left;verticalAlign=middle;whiteSpace=wrap;rounded=0;fontFamily=Source Han Sans;fontSize=12;fontColor=#6D7684;fontStyle=0" parent="1" vertex="1">
          <mxGeometry x="306" y="183" width="484" height="42" as="geometry" />
        </mxCell>
        <mxCell id="8V30FOKsPtYKY0wyYov8-1" value="" style="shape=image;aspect=fixed;image=data:image/svg+xml,PD94bWwgdmVyc2lvbj0iMS4wIiBzdGFuZGFsb25lPSJubyI/PjwhRE9DVFlQRSBzdmcgUFVCTElDICItLy9XM0MvL0RURCBTVkcgMS4xLy9FTiIgImh0dHA6Ly93d3cudzMub3JnL0dyYXBoaWNzL1NWRy8xLjEvRFREL3N2ZzExLmR0ZCI+PHN2ZyB0PSIxNjUzNDE1ODM0MTI0IiBjbGFzcz0iaWNvbiIgdmlld0JveD0iMCAwIDEwMjQgMTAyNCIgdmVyc2lvbj0iMS4xIiB4bWxucz0iaHR0cDovL3d3dy53My5vcmcvMjAwMC9zdmciIHAtaWQ9Ijc0NzEiIHhtbG5zOnhsaW5rPSJodHRwOi8vd3d3LnczLm9yZy8xOTk5L3hsaW5rIiB3aWR0aD0iMjAwIiBoZWlnaHQ9IjIwMCI+PGRlZnM+PHN0eWxlIHR5cGU9InRleHQvY3NzIj5AZm9udC1mYWNlIHsgZm9udC1mYW1pbHk6IGZlZWRiYWNrLWljb25mb250OyBzcmM6IHVybCgiLy9hdC5hbGljZG4uY29tL3QvZm9udF8xMDMxMTU4X3U2OXc4eWh4ZHUud29mZjI/dD0xNjMwMDMzNzU5OTQ0IikgZm9ybWF0KCJ3b2ZmMiIpLCB1cmwoIi8vYXQuYWxpY2RuLmNvbS90L2ZvbnRfMTAzMTE1OF91Njl3OHloeGR1LndvZmY/dD0xNjMwMDMzNzU5OTQ0IikgZm9ybWF0KCJ3b2ZmIiksIHVybCgiLy9hdC5hbGljZG4uY29tL3QvZm9udF8xMDMxMTU4X3U2OXc4eWh4ZHUudHRmP3Q9MTYzMDAzMzc1OTk0NCIpIGZvcm1hdCgidHJ1ZXR5cGUiKTsgfQo8L3N0eWxlPjwvZGVmcz48cGF0aCBkPSJNOTQyLjA4IDczOC4zMDRjLTI1LjYtMjMuNTUyLTU1LjI5Ni00Ny4xMDQtNzYuOC02MS40NC0yNy42NDgtMTkuNDU2LTU3LjM0NC0zOC45MTItODQuOTkyLTUxLjItNDMuMDA4LTIxLjUwNC01OS4zOTItMjUuNi03MC42NTYtMjUuNi0xOS40NTYgMC0zNS44NCAxMC4yNC01MS4yIDI5LjY5Ni04LjE5MiAxMi4yODgtMTcuNDA4IDI5LjY5Ni0yMy41NTIgNDUuMDU2LTQuMDk2IDEwLjI0LTEyLjI4OCAyNy42NDgtMTcuNDA4IDMzLjc5Mi04LjE5Mi0yLjA0OC0zMS43NDQtMTIuMjg4LTcwLjY1Ni0zNy44ODgtMzUuODQtMjUuNi03NC43NTItNTcuMzQ0LTEwNC40NDgtODQuOTkyLTI5LjY5Ni0yOS42OTYtNTkuMzkyLTY4LjYwOC04NC45OTItMTA0LjQ0OC0yNS42LTM3Ljg4OC0zNS44NC02MS40NC0zNy44ODgtNzAuNjU2IDYuMTQ0LTQuMDk2IDIzLjU1Mi0xMi4yODggMzMuNzkyLTE3LjQwOCAxNS4zNi02LjE0NCAzMS43NDQtMTIuMjg4IDQ1LjA1Ni0yMy41NTIgMjEuNTA0LTE1LjM2IDI5LjY5Ni0zMS43NDQgMjkuNjk2LTUxLjIgMC0xMC4yNC0yLjA0OC0yNy42NDgtMjUuNi03MC42NTYtMTIuMjg4LTI1LjYtMzEuNzQ0LTU1LjI5Ni01MS4yLTg0Ljk5Mi0xNS4zNi0yMS41MDQtMzguOTEyLTUxLjItNjEuNDQtNzYuOC0yNy42NDgtMjcuNjQ4LTQ3LjEwNC00MC45Ni02Ni41Ni00MC45Ni00Ny4xMDQgMC0xMDAuMzUyIDY4LjYwOC0xMTQuNjg4IDg3LjA0LTE5LjQ1NiAyNS42LTY2LjU2IDk2LjI1Ni02Ni41NiAxNTkuNzQ0IDAgNTkuMzkyIDQwLjk2IDEzOC4yNCA3NC43NTIgMTk0LjU2IDQ1LjA1NiA3Mi43MDQgMTA4LjU0NCAxNTMuNiAxNzcuMTUyIDIyNC4yNTZsMjEuNTA0IDIxLjUwNCAwIDBjNzAuNjU2IDY4LjYwOCAxNDkuNTA0IDEzMi4wOTYgMjI0LjI1NiAxNzcuMTUyIDIzLjU1MiAxNS4zNiA1MS4yIDI5LjY5NiA3OC44NDggNDMuMDA4bDAgMGM0LjA5NiAyLjA0OCA2LjE0NCAyLjA0OCAxMC4yNCAyLjA0OCAxNS4zNiAwIDI3LjY0OC0xMi4yODggMjcuNjQ4LTI3LjY0OCAwLTEwLjI0LTYuMTQ0LTIxLjUwNC0xNy40MDgtMjUuNi0yMS41MDQtMTAuMjQtNDUuMDU2LTIzLjU1Mi03MC42NTYtMzguOTEyLTcwLjY1Ni00My4wMDgtMTQ1LjQwOC0xMDIuNC0yMTIuOTkyLTE2OC45NmwtMjEuNTA0LTIxLjUwNGMtNjYuNTYtNjguNjA4LTEyNS45NTItMTQzLjM2LTE2OC45Ni0yMTIuOTkyLTQzLjAwOC02OC42MDgtNjYuNTYtMTI4LTY2LjU2LTE2My44NCAwLTMxLjc0NCAxOS40NTYtNzguODQ4IDUzLjI0OC0xMjMuOTA0IDE1LjM2LTE5LjQ1NiAyOS42OTYtMzcuODg4IDQ1LjA1Ni01MS4yIDE1LjM2LTEzLjMxMiAyMy41NTItMTcuNDA4IDI3LjY0OC0xNy40MDggMTAuMjQgNC4wOTYgNDMuMDA4IDMxLjc0NCA4Ny4wNCA5OC4zMDQgMTcuNDA4IDI1LjYgMzMuNzkyIDUxLjIgNDUuMDU2IDc0Ljc1MiAxNS4zNiAyNy42NDggMTcuNDA4IDQwLjk2IDE3LjQwOCA0My4wMDggMCAwLTQuMDk2IDQuMDk2LTEwLjI0IDguMTkyLTguMTkyIDQuMDk2LTIxLjUwNCAxMC4yNC0zMS43NDQgMTUuMzYtMTUuMzYgNi4xNDQtMjcuNjQ4IDEyLjI4OC00MC45NiAxOS40NTYtMTkuNDU2IDEyLjI4OC0yNy42NDggMjcuNjQ4LTI3LjY0OCA0NS4wNTYgMCA4LjE5MiAwIDMzLjc5MiA0OS4xNTIgMTA0LjQ0OCAyNS42IDM3Ljg4OCA1OS4zOTIgODAuODk2IDkyLjE2IDExMi42NGwwIDBjMzEuNzQ0IDMxLjc0NCA3NC43NTIgNjYuNTYgMTEyLjY0IDkyLjE2IDcwLjY1NiA0Ny4xMDQgOTYuMjU2IDQ5LjE1MiAxMDQuNDQ4IDQ5LjE1MmwwIDBjMTcuNDA4IDAgMzEuNzQ0LTguMTkyIDQ1LjA1Ni0yNy42NDggOC4xOTItMTAuMjQgMTIuMjg4LTI1LjYgMTkuNDU2LTQwLjk2IDQuMDk2LTEwLjI0IDEwLjI0LTIzLjU1MiAxNS4zNi0zMS43NDQgNi4xNDQtNC4wOTYgMTAuMjQtNi4xNDQgMTAuMjQtNi4xNDQgMi4wNDggMCAxNS4zNiAyLjA0OCA0My4wMDggMTcuNDA4IDIxLjUwNCAxMi4yODggNDkuMTUyIDI3LjY0OCA3NC43NTIgNDUuMDU2IDYzLjQ4OCA0NS4wNTYgOTQuMjA4IDc2LjggOTguMzA0IDg3LjA0LTIuMDQ4IDQuMDk2LTYuMTQ0IDEyLjI4OC0xNy40MDggMjcuNjQ4LTEyLjI4OCAxNS4zNi0zMS43NDQgMzEuNzQ0LTUxLjIgNDUuMDU2LTI5LjY5NiAyMS41MDQtNjEuNDQgMzguOTEyLTg3LjA0IDQ3LjEwNGwwIDBjLTEwLjI0IDQuMDk2LTE3LjQwOCAxNS4zNi0xNy40MDggMjUuNiAwIDE1LjM2IDEyLjI4OCAyNy42NDggMjcuNjQ4IDI3LjY0OCAyLjA0OCAwIDQuMDk2IDAgNi4xNDQtMi4wNDhsMCAwYzIuMDQ4IDAgMi4wNDggMCA0LjA5Ni0yLjA0OGwwIDBjNDUuMDU2LTE1LjM2IDgyLjk0NC00MC45NiAxMDIuNC01NS4yOTYgMjEuNTA0LTE1LjM2IDg3LjA0LTcwLjY1NiA4Ny4wNC0xMTUuNzEyQzk4Mi4wMTYgNzg1LjQwOCA5NjkuNzI4IDc2NS45NTIgOTQyLjA4IDczOC4zMDR6IiBwLWlkPSI3NDcyIiBmaWxsPSIjMzMzMzMzIj48L3BhdGg+PC9zdmc+;" parent="1" vertex="1">
          <mxGeometry x="62" y="167" width="16" height="16" as="geometry" />
        </mxCell>
        <mxCell id="f_WsF18iGsAuf6Pvj065-1" value="六级&amp;nbsp; &amp;nbsp; 550 / 710" style="text;html=1;strokeColor=none;fillColor=none;align=left;verticalAlign=middle;whiteSpace=wrap;rounded=0;fontFamily=Source Han Sans;fontSize=12;fontColor=#6D7684;fontStyle=0" parent="1" vertex="1">
          <mxGeometry x="60" y="438" width="199" height="23" as="geometry" />
        </mxCell>
        <mxCell id="AF2Ux_LV5sccvWK5wioI-11" value="第二届 CUSGA 中国大学生游戏开发创作大赛：决赛" style="text;html=1;strokeColor=none;fillColor=none;align=left;verticalAlign=middle;whiteSpace=wrap;rounded=0;fontSize=15;fontFamily=Source Han Sans;fontStyle=1;fontColor=#404964;" parent="1" vertex="1">
          <mxGeometry x="303" y="1019" width="416" height="20" as="geometry" />
        </mxCell>
        <mxCell id="AF2Ux_LV5sccvWK5wioI-12" value="2022.4" style="text;html=1;strokeColor=none;fillColor=none;align=right;verticalAlign=middle;whiteSpace=wrap;rounded=0;fontFamily=Source Han Sans;fontSize=15;fontColor=#6D7684;fontStyle=0" parent="1" vertex="1">
          <mxGeometry x="642" y="1022" width="126" height="14" as="geometry" />
        </mxCell>
        <mxCell id="AF2Ux_LV5sccvWK5wioI-19" value="&lt;p style=&quot;line-height: 1.6;&quot;&gt;我们的团队合作项目《某游戏名称》入围第二届 CUSGA 中国大学生游戏开发创作大赛决赛（30 / 350），我们的作品具有怎样的特点，这些特点具有什么样的好处，这些好处最终帮助我们在竞赛中脱颖而出。&lt;/p&gt;" style="text;html=1;strokeColor=none;fillColor=none;align=left;verticalAlign=middle;whiteSpace=wrap;rounded=0;fontFamily=Source Han Sans;fontSize=12;fontColor=#6D7684;fontStyle=0" parent="1" vertex="1">
          <mxGeometry x="303" y="1047" width="466" height="55.73" as="geometry" />
        </mxCell>
        <UserObject label="&lt;p style=&quot;line-height: 1.4;&quot;&gt;&lt;font face=&quot;Georgia&quot; style=&quot;font-size: 12px;&quot;&gt;C&lt;/font&gt;&lt;font face=&quot;Georgia&quot; size=&quot;1&quot; style=&quot;&quot;&gt;opyright&lt;/font&gt;&lt;font face=&quot;Georgia&quot; style=&quot;font-size: 12px;&quot;&gt;&amp;nbsp;© 2022 M&lt;/font&gt;&lt;font face=&quot;Georgia&quot; style=&quot;font-size: 12px;&quot;&gt;oeCode.com&lt;/font&gt;&lt;br style=&quot;font-size: 12px;&quot;&gt;&lt;span style=&quot;font-size: 11px;&quot;&gt;&lt;font face=&quot;Source Han Sans&quot;&gt;公众号：萌可研究所&lt;/font&gt;&lt;/span&gt;&lt;/p&gt;" link="https://moecode.com" linkTarget="_blank" id="AF2Ux_LV5sccvWK5wioI-20">
          <mxCell style="text;html=1;strokeColor=none;fillColor=none;align=center;verticalAlign=middle;whiteSpace=wrap;rounded=0;fontFamily=Inter;fontSize=12;fontColor=#6D7684;" parent="1" vertex="1">
            <mxGeometry x="65" y="1071" width="197" height="31.73" as="geometry" />
          </mxCell>
        </UserObject>
        <mxCell id="D_XdAdszSeVdfn9byeem-1" value="Git" style="text;html=1;strokeColor=none;fillColor=none;align=left;verticalAlign=middle;whiteSpace=wrap;rounded=0;fontFamily=Inter;fontSize=15;fontColor=#404964;fontStyle=0" parent="1" vertex="1">
          <mxGeometry x="61" y="524" width="87" height="23" as="geometry" />
        </mxCell>
        <mxCell id="D_XdAdszSeVdfn9byeem-2" value="Java" style="text;html=1;strokeColor=none;fillColor=none;align=left;verticalAlign=middle;whiteSpace=wrap;rounded=0;fontFamily=Inter;fontSize=15;fontColor=#404964;fontStyle=0" parent="1" vertex="1">
          <mxGeometry x="61" y="551" width="87" height="23" as="geometry" />
        </mxCell>
        <mxCell id="D_XdAdszSeVdfn9byeem-3" value="C/C++" style="text;html=1;strokeColor=none;fillColor=none;align=left;verticalAlign=middle;whiteSpace=wrap;rounded=0;fontFamily=Inter;fontSize=15;fontColor=#404964;fontStyle=0" parent="1" vertex="1">
          <mxGeometry x="61" y="578" width="87" height="23" as="geometry" />
        </mxCell>
        <mxCell id="D_XdAdszSeVdfn9byeem-4" value="Python" style="text;html=1;strokeColor=none;fillColor=none;align=left;verticalAlign=middle;whiteSpace=wrap;rounded=0;fontFamily=Inter;fontSize=15;fontColor=#404964;fontStyle=0" parent="1" vertex="1">
          <mxGeometry x="61" y="605" width="87" height="23" as="geometry" />
        </mxCell>
        <mxCell id="D_XdAdszSeVdfn9byeem-5" value="JavaScript" style="text;html=1;strokeColor=none;fillColor=none;align=left;verticalAlign=middle;whiteSpace=wrap;rounded=0;fontFamily=Inter;fontSize=15;fontColor=#404964;fontStyle=0" parent="1" vertex="1">
          <mxGeometry x="60" y="632" width="87" height="23" as="geometry" />
        </mxCell>
        <mxCell id="D_XdAdszSeVdfn9byeem-6" value="" style="rounded=0;whiteSpace=wrap;html=1;fontFamily=Inter;fontSize=15;fontColor=#404964;strokeColor=none;fillColor=#57607B;aspect=fixed;" parent="1" vertex="1">
          <mxGeometry x="176" y="534" width="5" height="5" as="geometry" />
        </mxCell>
        <mxCell id="D_XdAdszSeVdfn9byeem-7" value="" style="rounded=0;whiteSpace=wrap;html=1;fontFamily=Inter;fontSize=15;fontColor=#404964;strokeColor=none;fillColor=#57607B;aspect=fixed;" parent="1" vertex="1">
          <mxGeometry x="196" y="534" width="5" height="5" as="geometry" />
        </mxCell>
        <mxCell id="D_XdAdszSeVdfn9byeem-8" value="" style="rounded=0;whiteSpace=wrap;html=1;fontFamily=Inter;fontSize=15;fontColor=#404964;strokeColor=none;fillColor=#57607B;aspect=fixed;" parent="1" vertex="1">
          <mxGeometry x="216" y="534" width="5" height="5" as="geometry" />
        </mxCell>
        <mxCell id="D_XdAdszSeVdfn9byeem-9" value="" style="rounded=0;whiteSpace=wrap;html=1;fontFamily=Inter;fontSize=15;fontColor=#404964;strokeColor=none;fillColor=#57607B;aspect=fixed;" parent="1" vertex="1">
          <mxGeometry x="236" y="534" width="5" height="5" as="geometry" />
        </mxCell>
        <mxCell id="D_XdAdszSeVdfn9byeem-10" value="" style="rounded=0;whiteSpace=wrap;html=1;fontFamily=Inter;fontSize=15;fontColor=#404964;strokeColor=none;fillColor=#57607B;aspect=fixed;" parent="1" vertex="1">
          <mxGeometry x="256" y="534" width="5" height="5" as="geometry" />
        </mxCell>
        <mxCell id="D_XdAdszSeVdfn9byeem-11" value="" style="rounded=0;whiteSpace=wrap;html=1;fontFamily=Inter;fontSize=15;fontColor=#404964;strokeColor=none;fillColor=#57607B;aspect=fixed;" parent="1" vertex="1">
          <mxGeometry x="176" y="560" width="5" height="5" as="geometry" />
        </mxCell>
        <mxCell id="D_XdAdszSeVdfn9byeem-12" value="" style="rounded=0;whiteSpace=wrap;html=1;fontFamily=Inter;fontSize=15;fontColor=#404964;strokeColor=none;fillColor=#57607B;aspect=fixed;" parent="1" vertex="1">
          <mxGeometry x="196" y="560" width="5" height="5" as="geometry" />
        </mxCell>
        <mxCell id="D_XdAdszSeVdfn9byeem-13" value="" style="rounded=0;whiteSpace=wrap;html=1;fontFamily=Inter;fontSize=15;fontColor=#404964;strokeColor=none;fillColor=#57607B;aspect=fixed;" parent="1" vertex="1">
          <mxGeometry x="216" y="560" width="5" height="5" as="geometry" />
        </mxCell>
        <mxCell id="D_XdAdszSeVdfn9byeem-14" value="" style="rounded=0;whiteSpace=wrap;html=1;fontFamily=Inter;fontSize=15;fontColor=#404964;strokeColor=none;fillColor=#57607B;aspect=fixed;" parent="1" vertex="1">
          <mxGeometry x="236" y="560" width="5" height="5" as="geometry" />
        </mxCell>
        <mxCell id="D_XdAdszSeVdfn9byeem-15" value="" style="rounded=0;whiteSpace=wrap;html=1;fontFamily=Inter;fontSize=15;fontColor=#666666;strokeColor=none;fillColor=#BCC4D1;aspect=fixed;" parent="1" vertex="1">
          <mxGeometry x="256" y="560" width="5" height="5" as="geometry" />
        </mxCell>
        <mxCell id="D_XdAdszSeVdfn9byeem-16" value="" style="rounded=0;whiteSpace=wrap;html=1;fontFamily=Inter;fontSize=15;fontColor=#404964;strokeColor=none;fillColor=#57607B;aspect=fixed;" parent="1" vertex="1">
          <mxGeometry x="176" y="587" width="5" height="5" as="geometry" />
        </mxCell>
        <mxCell id="D_XdAdszSeVdfn9byeem-17" value="" style="rounded=0;whiteSpace=wrap;html=1;fontFamily=Inter;fontSize=15;fontColor=#404964;strokeColor=none;fillColor=#57607B;aspect=fixed;" parent="1" vertex="1">
          <mxGeometry x="196" y="587" width="5" height="5" as="geometry" />
        </mxCell>
        <mxCell id="D_XdAdszSeVdfn9byeem-18" value="" style="rounded=0;whiteSpace=wrap;html=1;fontFamily=Inter;fontSize=15;fontColor=#404964;strokeColor=none;fillColor=#57607B;aspect=fixed;" parent="1" vertex="1">
          <mxGeometry x="216" y="587" width="5" height="5" as="geometry" />
        </mxCell>
        <mxCell id="D_XdAdszSeVdfn9byeem-19" value="" style="rounded=0;whiteSpace=wrap;html=1;fontFamily=Inter;fontSize=15;fontColor=#666666;strokeColor=none;fillColor=#BCC4D1;aspect=fixed;" parent="1" vertex="1">
          <mxGeometry x="236" y="587" width="5" height="5" as="geometry" />
        </mxCell>
        <mxCell id="D_XdAdszSeVdfn9byeem-20" value="" style="rounded=0;whiteSpace=wrap;html=1;fontFamily=Inter;fontSize=15;fontColor=#666666;strokeColor=none;fillColor=#BCC4D1;aspect=fixed;" parent="1" vertex="1">
          <mxGeometry x="256" y="587" width="5" height="5" as="geometry" />
        </mxCell>
        <mxCell id="D_XdAdszSeVdfn9byeem-21" value="" style="rounded=0;whiteSpace=wrap;html=1;fontFamily=Inter;fontSize=15;fontColor=#404964;strokeColor=none;fillColor=#57607B;aspect=fixed;" parent="1" vertex="1">
          <mxGeometry x="176" y="614" width="5" height="5" as="geometry" />
        </mxCell>
        <mxCell id="D_XdAdszSeVdfn9byeem-22" value="" style="rounded=0;whiteSpace=wrap;html=1;fontFamily=Inter;fontSize=15;fontColor=#404964;strokeColor=none;fillColor=#57607B;aspect=fixed;" parent="1" vertex="1">
          <mxGeometry x="196" y="614" width="5" height="5" as="geometry" />
        </mxCell>
        <mxCell id="D_XdAdszSeVdfn9byeem-23" value="" style="rounded=0;whiteSpace=wrap;html=1;fontFamily=Inter;fontSize=15;fontColor=#404964;strokeColor=none;fillColor=#57607B;aspect=fixed;" parent="1" vertex="1">
          <mxGeometry x="216" y="614" width="5" height="5" as="geometry" />
        </mxCell>
        <mxCell id="D_XdAdszSeVdfn9byeem-24" value="" style="rounded=0;whiteSpace=wrap;html=1;fontFamily=Inter;fontSize=15;fontColor=#666666;strokeColor=none;fillColor=#BCC4D1;aspect=fixed;" parent="1" vertex="1">
          <mxGeometry x="236" y="614" width="5" height="5" as="geometry" />
        </mxCell>
        <mxCell id="D_XdAdszSeVdfn9byeem-25" value="" style="rounded=0;whiteSpace=wrap;html=1;fontFamily=Inter;fontSize=15;fontColor=#666666;strokeColor=none;fillColor=#BCC4D1;aspect=fixed;" parent="1" vertex="1">
          <mxGeometry x="256" y="614" width="5" height="5" as="geometry" />
        </mxCell>
        <mxCell id="D_XdAdszSeVdfn9byeem-26" value="" style="rounded=0;whiteSpace=wrap;html=1;fontFamily=Inter;fontSize=15;fontColor=#404964;strokeColor=none;fillColor=#57607B;aspect=fixed;" parent="1" vertex="1">
          <mxGeometry x="176" y="641" width="5" height="5" as="geometry" />
        </mxCell>
        <mxCell id="D_XdAdszSeVdfn9byeem-27" value="" style="rounded=0;whiteSpace=wrap;html=1;fontFamily=Inter;fontSize=15;fontColor=#404964;strokeColor=none;fillColor=#57607B;aspect=fixed;" parent="1" vertex="1">
          <mxGeometry x="196" y="641" width="5" height="5" as="geometry" />
        </mxCell>
        <mxCell id="D_XdAdszSeVdfn9byeem-28" value="" style="rounded=0;whiteSpace=wrap;html=1;fontFamily=Inter;fontSize=15;fontColor=#666666;strokeColor=none;fillColor=#BCC4D1;aspect=fixed;" parent="1" vertex="1">
          <mxGeometry x="216" y="641" width="5" height="5" as="geometry" />
        </mxCell>
        <mxCell id="D_XdAdszSeVdfn9byeem-29" value="" style="rounded=0;whiteSpace=wrap;html=1;fontFamily=Inter;fontSize=15;fontColor=#666666;strokeColor=none;fillColor=#BCC4D1;aspect=fixed;" parent="1" vertex="1">
          <mxGeometry x="236" y="641" width="5" height="5" as="geometry" />
        </mxCell>
        <mxCell id="D_XdAdszSeVdfn9byeem-30" value="" style="rounded=0;whiteSpace=wrap;html=1;fontFamily=Inter;fontSize=15;fontColor=#666666;strokeColor=none;fillColor=#BCC4D1;aspect=fixed;" parent="1" vertex="1">
          <mxGeometry x="256" y="641" width="5" height="5" as="geometry" />
        </mxCell>
        <mxCell id="csp5jKro6aII4pgKmo1C-38" value="基于图形界面的多线程 Web 服务器" style="text;html=1;strokeColor=none;fillColor=none;align=left;verticalAlign=middle;whiteSpace=wrap;rounded=0;fontSize=15;fontFamily=Source Han Sans;fontStyle=1;fontColor=#404964;" parent="1" vertex="1">
          <mxGeometry x="310" y="909.14" width="416" height="20" as="geometry" />
        </mxCell>
        <mxCell id="csp5jKro6aII4pgKmo1C-40" value="2021.9" style="text;html=1;strokeColor=none;fillColor=none;align=right;verticalAlign=middle;whiteSpace=wrap;rounded=0;fontFamily=Source Han Sans;fontSize=15;fontColor=#6D7684;fontStyle=0" parent="1" vertex="1">
          <mxGeometry x="643" y="870.27" width="126" height="14" as="geometry" />
        </mxCell>
        <mxCell id="csp5jKro6aII4pgKmo1C-34" value="&lt;div&gt;应用运营平台&amp;nbsp;&lt;/div&gt;" style="text;html=1;strokeColor=none;fillColor=none;align=left;verticalAlign=middle;whiteSpace=wrap;rounded=0;fontSize=15;fontFamily=Source Han Sans;fontStyle=1;fontColor=#404964;" parent="1" vertex="1">
          <mxGeometry x="303" y="510" width="416" height="20" as="geometry" />
        </mxCell>
        <mxCell id="csp5jKro6aII4pgKmo1C-42" value="&lt;div&gt;学习机资源平台&amp;nbsp;&lt;/div&gt;" style="text;html=1;strokeColor=none;fillColor=none;align=left;verticalAlign=middle;whiteSpace=wrap;rounded=0;fontSize=15;fontFamily=Source Han Sans;fontStyle=1;fontColor=#404964;" parent="1" vertex="1">
          <mxGeometry x="303" y="676.77" width="416" height="20" as="geometry" />
        </mxCell>
        <mxCell id="csp5jKro6aII4pgKmo1C-43" value="2020.3" style="text;html=1;strokeColor=none;fillColor=none;align=right;verticalAlign=middle;whiteSpace=wrap;rounded=0;fontFamily=Source Han Sans;fontSize=15;fontColor=#6D7684;fontStyle=0" parent="1" vertex="1">
          <mxGeometry x="722" y="679.77" width="47" height="14" as="geometry" />
        </mxCell>
        <mxCell id="csp5jKro6aII4pgKmo1C-44" value="&lt;p style=&quot;line-height: 1.6;&quot;&gt;&lt;br&gt;&lt;/p&gt;" style="text;html=1;strokeColor=none;fillColor=none;align=left;verticalAlign=middle;whiteSpace=wrap;rounded=0;fontFamily=Source Han Sans;fontSize=12;fontColor=#6D7684;fontStyle=0" parent="1" vertex="1">
          <mxGeometry x="303" y="703.77" width="466" height="55" as="geometry" />
        </mxCell>
        <mxCell id="AF2Ux_LV5sccvWK5wioI-1" value="仿真五段重定向流水线 &lt;span&gt;CPU&lt;/span&gt;" style="text;html=1;strokeColor=none;fillColor=none;align=left;verticalAlign=middle;whiteSpace=wrap;rounded=0;fontSize=15;fontFamily=Source Han Sans;fontStyle=1;fontColor=#404964;" parent="1" vertex="1">
          <mxGeometry x="290" y="970" width="416" height="20" as="geometry" />
        </mxCell>
        <mxCell id="AF2Ux_LV5sccvWK5wioI-2" value="2020.3" style="text;html=1;strokeColor=none;fillColor=none;align=right;verticalAlign=middle;whiteSpace=wrap;rounded=0;fontFamily=Source Han Sans;fontSize=15;fontColor=#6D7684;fontStyle=0" parent="1" vertex="1">
          <mxGeometry x="722" y="774.77" width="47" height="14" as="geometry" />
        </mxCell>
        <mxCell id="AF2Ux_LV5sccvWK5wioI-3" value="&lt;p style=&quot;line-height: 1.6;&quot;&gt;使用电路仿真软件 Logisim 完成电路绘制，系统支持 28 条 MIPS 指令，实现了多级嵌套中断和经典五段流水线，通过重定向消解数据冲突，实现分支预测算法提升性能，最终能运行具有一定复杂度的测试程序。&lt;/p&gt;" style="text;html=1;strokeColor=none;fillColor=none;align=left;verticalAlign=middle;whiteSpace=wrap;rounded=0;fontFamily=Source Han Sans;fontSize=12;fontColor=#6D7684;fontStyle=0" parent="1" vertex="1">
          <mxGeometry x="302" y="909.14" width="466" height="55" as="geometry" />
        </mxCell>
        <mxCell id="iDYcILabEgGecgKMrOln-7" value="" style="shape=image;imageAspect=0;aspect=fixed;verticalLabelPosition=bottom;verticalAlign=top;image=data:image/png,iVBORw0KGgoAAAANSUhEUgAAAEAAAABACAYAAACqaXHeAAAAAXNSR0IArs4c6QAABlFJREFUeF7tWl1SGzkQlsb287InWHKCOJZ5DpwgyQkCJwicYOEECydYc4KFEyx5xj1rTrBwgoVnrFHqm5JcjXZ+JHnGoQqrylUhM6OfT193f92SFG+8yTe+frEFYMuAN47A1gTeOAG2TvCnmMB4PN4djUa/eex7ur29XWyakRsBYG9vb6y1/iSl3BdC4NfU7oUQN/hpra8Xi8Vjn6D0BsB4PN7JsuyblPJQCLG7xiKupJQX8/kcoHTeOgeALfxYCLHjzfhBCLGQUpZUN8bg39jhkhXGGAA1FkK8r1jpjZTyrGsgOgVAKfVZCPGnt/A7Y8xsMBjc+DYOX4CFLhYL0H7V8P9Zlu1LKdHfJ/5MSnm+XC7PujKNTgDArg8Ggz+EEKC7a9jtYyK6quPtZDLBrr4nol/r3rFgzKSUH9k7iyzLjrpwmmsDYBf/t6Uu5vhkjDnO83zWZrAWgI9E1DqP6XS6b4w5Z+bxmGXZwbogtA7ctAi7eDgnZ7N3WZYdhk4qBgDMw44HYJ1ZrA1CMgD+zhtjvhdF8TnGNmMBcJsxnU5PjTG/278XWuuDmHFf+JQ2mtY9V0rB2TmbvyYiOKyoBn1QFMVuk59o8B+HUkrMofSjRPQhanD7chIDrLf/y/Zxp7XeT92BlEm7b5RSMIev9u8LIkLojWrRAFjq/2tD3ZPWeuzCGNMAj1rry02A4swIq5ZSHsTqhGgAOOrGmJM8z+GZy2Y9NSICGmL7KRFdRm1J5MsIk4PBAMLqF4xJRO9iuogCwA6G3Ydq+57n+Qtdb9mByfBEB0CcpNh56EK4UzTGHIWEYNd3FABKKez2tya6Wcf2T8Xke5GyGMcCD6DBgiiHGAsAdh/y9YGIahOcyWRyLKWEMkSDIuSMQJZ35Mvf0N2ue49vTpZlH0K1SDAA3L5926+aFHNOpVgpiuLU0/UzrTU0/Ys8IBUIbp5CiOCIEAPASnxord+1Tdyj5Q0RHQBEAMF1vTHmtCiKiy4ihlIKYIJtwWYQDADb0Ub68x2sY81kMoGIASOcaTxC5+d5fpbKAHzHI1RIflH6stABlVL/2dh/SUQ862vsosk2ra8AEHBea4dOC2ypDkM1QRAAls4AAB2jKIFJBzelFEIjEqb/URN9D4fDY6bt0S8KJSexosZjXFA4DAKAd5wCgCdWKh2UfQfAOmkLIKJCZ8o8owFwQsPLyDDZLy3FD5681L5bAwQixolzlPYdaA1XcluBqpQyMUxNBoDbtrWFRgA8J4Vc4UNTJLGV5HMXMTjzPEah61U22jsAKSbgnIVXQClDY50j8eoNQRlnbyawrhPki+RSuQlMVm9AxrkbohN6c4KWvihfI1xFhcEalbiSylXhipnXE6rDobK2tzCIRTAhFJ1yVoGglEK1GLW9e+sPyhMgvogYTd+7EOJeP0QKt4kEL3W+IqIvKRTm4yilXLJ2R0Q4YGltQVEAvaw7uaqZcH+AnEBK6U6TgpMZ5mBRGClrFb0kQ5Zi0clG2xZU6IkkH8P7iTGdYAZYFqwywlCt3QaAZwpB4a7Gp7hcJZj+pWBqmyB/XpXixnzfEPN3h8Ph4XK5PA8Jd34/vADTa0nMmsGqLNYmf7sAp60Pr0odnKq7fqMYgI88FkDSojjS6yWGJhCUUjifKA9lUswyGgDLAgzoDkaSnFbbzoY855ohVaAlAWBB4KcyMyI6Cpm051NwV2gnVOnxb7s6nUoGwD8ZxsWF+Xx+EgNC6uGodxEjSi7780sGgPkDfjx+ZUveQT4hBQClFM4l3GnUWouPDoNVu2vPA3GRyd3guJdSHoWUs2IAsDUA1PvcadTai+8EAAdKRYEEbEAVp7bubwEYE5F/mWqFdc2lq6iLGE1muZYJVAgSlL1AT1flxStgx2w+n1/772NxKGtVgYQ8wRjz1RiDCjQH6EJrfdpV6O0UAOcXbJUXiQ0HAn7hBlfjcGMM7z4/P+PY7HE0GpVXbIqiQAaHH2juH7094M5hiGnFOOLOAXCDs+ImNAMHImZ+eBfX7HBo0nrpKrbjTn1A0+A27QWVAYZ/R7jq0zsp5dVyuZy1HcGlLJp/0xsD2gAxxuyA8lmWOfsuzaJrircB9FMAaJvUJp9vAdgk2q9xrC0DXuOubHJOWwZsEu3XONaWAa9xVzY5pzfPgB93+tRuJTbjAAAAAABJRU5ErkJggg==;" vertex="1" parent="1">
          <mxGeometry x="60" y="101" width="21" height="21" as="geometry" />
        </mxCell>
        <mxCell id="iDYcILabEgGecgKMrOln-10" value="web前端开发" style="text;strokeColor=none;align=left;fillColor=none;html=1;verticalAlign=middle;whiteSpace=wrap;rounded=0;container=0;" vertex="1" parent="1">
          <mxGeometry x="80" y="95" width="90" height="30" as="geometry" />
        </mxCell>
        <mxCell id="iDYcILabEgGecgKMrOln-12" value="" style="shape=image;imageAspect=0;aspect=fixed;verticalLabelPosition=bottom;verticalAlign=top;image=data:image/png,iVBORw0KGgoAAAANSUhEUgAAAEAAAABACAYAAACqaXHeAAAAAXNSR0IArs4c6QAACddJREFUeF7tWg2MVFcVPucNuywI7IoFrRJTWqiJFLpz75td15KygNqmYlVQpGIbJaaxVltpxFaNsYTW/kRLA1Rr4g+1hlo1ihJ/alC30YUs884duri1TbCtsai11G0L6f7N3GPO+N7m7dt5M292Z3cJ7E0mOzvv3HPP+e659537nYtwjjc8x/2HaQCmI+AcR2B6CdQqAJYsWTJz7ty5KxFxHgA0+n/lez8AvIyIxY/jOEe6urperdW449UzrghoaWlZbK1dzcxXAsCHqzCmg5kfB4DDxpjHquhXc9ExAZBOpy93HOcTAPDxGljUAwAHHMc5kM1mD9VAX1UqqgJAKbVOnEbEDZFRnpfZBIDfAcCxVCrVOzQ01NvY2Njb19c3e2BgYH4qlZoPAG9FxFUAoJhZAcCciJ59AHA3ER2ryotxCCcCQNZ3U1PTDmbeFhrrNDPvZeZ9uVxOnK+qpdPpBalUaj0zrweA94Q6v+KDcHdVCscoXBEApdQaANiBiO/0x3gZAPYw80PGmONjHHdEt0wmk7HWfjq8pJj5YCqVujabzf67FmPE6SgLgNZaNrYfhzrvdxxnezabPToRRmUymXcx803M/D5ffy8irvU8LzcR44nOWACizjPzVmPM/RNlSFiv67pfYOZ7gt+stctyudyTEzF2SQBKOL/FGPP9iTAgTqfrulcx868mGoRRAKxYsWJhXV3dnwDgYn/wbUT09cl0PhhLa/0pAPiW/3+PtXZjrSNhFABKqfsQcas/6C4iujnO+XQ6vTaVSq1j5ucdx/l90r1h+fLlr585c+Yaa+2HAOAxa23H0aNHnys1jlLqdkT8qv9sHxFtruVkjABAHHIc56A/wFNDQ0Oruru7/1NqQK31LgD4bOhZT0NDQ1tnZ+epcga2tbXNGhwc/CMAtIbkfkJEG+P6KaUeQcRN8pyZNxhjflYrEEYAoLV+FACKhjDztcaYH5YaqKWl5eJCofB09BkiftTzvEfKGaeUuh4Rv11C5s1E9K9SfV3XTTPznwFgNjMfMsZcVnMAJDFxHOefADBDwpKIJL8v2SYbADEivBQQ8SrP835TCxCGI0BrLYnIA77SzUQkaWlsm8wl4AOwDhEP+AbtJqKbag2ArMt2AHiFiJqSKFdKrZDJkT6I2E1Ef0vSb9myZXNmz569olAotCDikzNmzHiiq6vrhQqAnw8ATwDAAgA4TkRLk4xVSSYcAX+XwwoA/JqI3lup42Q8d133EmvtUsdxFlpr5yHi5QAgBzJpdyHiX621J2bNmpWttPnG2VsEoL29fcapU6eG5DszP2yMuW4yHCw1hlJqIyKuBACZhAsT2tELAAf988PBbDb7TMJ+/0+Fw5saM+80xtySVEGt5Py3w/UAoGugczcz70pyWCsCkE6n2xzHCciIe4jothoYkUiFcAyIeHsJx59CRA8AOoRjQMST1tqXAOA1ADgPEd8gfwHg3cz8DgDIAMDc0KD/ZebdxhjRHduKALS2ti7K5/P/8KXKJiWJvEoopJS6AxG/HBHfx8w/qJYqy2Qyb2Lm6+QDAMtCOsu+0sObYB8ANAAAEZGb0Icxi2mt5Zgd5hH3W2vvzOVyMutjblrrOkT8DDPfCQCzfEWvElFjKaVhACSzkwNQLxEJfTVhLer8RBy1/WV9BwAIoSOth4guiToVBkCSjOIrhpkvNcZ0TwQCrut+j5mFUC02RPyk53nfnYixRGcE7FHLexgA13U3MPNPfQDuNcbcWmujXNfdxMzhs8JtRDRMfNR6vEBfGARmHuHbiMOQ67qPM7MkGyfq6+uXHj58WPaFmrS2trb5g4ODUgsIwnAvEQ1HQnQQ13Xb+/r6DvX09AxWMkB09/X1zYs7Ujc3NzelUinJdJv9qFvpeV5n8XtYuVJKKO+A+fkSEd1VafCkz13X3crM9/nyzxUKhdWlDM5kMs3W2u/4r0WZgEfLARWx+VihULi6lF6t9QcA4Od+hP/SGPP+UQDID67rSka11hfcZIyRI/K4m9Y6OGuIrhuI6MFSSpVSn0PEneFnhUJhcdzsaq2fBYALQvKxkaW1luN9kVBxHOciyRhHMUKu67ZISuknFa8R0evG673WWg4yctSWdrq/v//8np6e06X0hmcqiBYiWhxng9ZaIna4QiUbrDFmbwy4mxGxyHEg4i2e5+0sSYoqpW5ExD2+oOd5nmRZY24RgvNBIrohTpmsV8dx5DxwjV9pkrxEKk4lW3Nz8wWO48jSfQszd8Y5L539fUiySWkdRLS6HC3+EAAEh6IT1trLcrmcnBirbpF1ejMRCZ02JU1rLcWciwDgRSJaWKkwEg2vjxhjwoWSRE4opbYh4r0izMw121cSDR4R0loLn/hB+dlaWx4AEVJK7ZbUMtCThPeLGhZmmxBxted5csCZkhah1uKXQNg6rfXXAOCL/m83EtE3q7Fe3unMLG+BMyEChs8g+Xx+UcXiqBjd2tr6xnw+XyxSStjkcrkXAwB8556OY3RFzidcA3p9qveAv/inxZNEtCARAFprIUi+AQCGiIqEhdZaagKf92k0+UlAkcsOUsN7FhFfYGb5CIe3NFTcKPsWqCayqpVNp9OXOo4TFHY7iWhlUgCMTKQsA2Y+hYji/NuqNcCXL5sHjFFnom7hqpf44HnenooARMJX0Cvm037rQMTt/tJo929/CLMcbXKZojt0xyA2E0zkyRiEfNJH7Bcm6Xh/f39akrGKAETqBSMcj9vNtdbDlBUzPyP7gzA21lpJW4V0iT0LjMG3RF1c132YmT/mC3+FiIQrqHxVNpLDF2d8rK8xrbW8SeSNIq3saTCRVwmFwq9yKa0NDAxcEaTiFSPAf2+uGo/jYTu11lLjK9b2mHl7JdIyoY+xYpE0/LTjOFeEb6NVBGC8BkT7Ry8+TCQISqkrETFcQxy190w6AAKI1lrYpuFbYIj4gPCCRFQsztSiRS5XxEbblADggyCMsHACAQH7B2vtreNlhUW367rXyPW9AMhyUTZlAIhxSiktsx+5LDGmukA4asKkSqUlNqUAiNFyXaaurk4KnVsAoC7kSGxlKJ/PL6yvr19QKBQWyYRLUoaIixHxfs/zfuTTasWrdalU6rwjR44EHMCo1TXlAAQW+ZXgLT4QJYsYCfeGX0jlGAB+CwBNzFz2htsZA0DgXCaTubBQKARACJWWtMkRO5yF7geAIhFKRHIdt2Q74wAIrJT7yXPmzJHL1cFHeEFhchYws4T0SQB4yXGcjiAxU0qtR8QdAPD2kLd5IgovrRFAnLEAJJ32UnI+AyW8Y5FMLUfCnJUAiNP+dTw5rq9paGi4Ou4GyVkLQNIImgYgKVJnq9x0BJytM5vUr+kISIrU2Sr3P9vWcKlocQufAAAAAElFTkSuQmCC;" vertex="1" parent="1">
          <mxGeometry x="62" y="198" width="16" height="16" as="geometry" />
        </mxCell>
        <mxCell id="iDYcILabEgGecgKMrOln-14" value="&lt;font face=&quot;inter&quot; style=&quot;font-size: 13px;&quot;&gt;AnnGreen_&lt;/font&gt;" style="text;strokeColor=none;align=left;fillColor=none;html=1;verticalAlign=middle;whiteSpace=wrap;rounded=0;" vertex="1" parent="1">
          <mxGeometry x="80" y="192" width="60" height="30" as="geometry" />
        </mxCell>
        <mxCell id="iDYcILabEgGecgKMrOln-18" value="" style="shape=image;imageAspect=0;verticalLabelPosition=bottom;verticalAlign=top;image=data:image/png,iVBORw0KGgoAAAANSUhEUgAAAEAAAABACAYAAACqaXHeAAAAAXNSR0IArs4c6QAACAdJREFUeF7tW2+MXFUV/533lg1J4YNptFaikc7MfbPsWpTdeVNCRExboiaQ+IfYRowIBigg+KExSqLxT4gSY3QhQrNa+KBITYwGSSxYKhUi7LxxVCpL3707i0ST2vUPH0zR4u68Y+57b3bfTufPe2/eTEu2L9nshzn33HN+79xzz73n9wjr/KF17j/OAXAuAoaAgBCTRcDcRYxNRNjEwCb4f6T/A+BFAIsELDJjkQmLQOOAUjV30OYNbAmM5bdd1jAaVxPoYwAmUzpSY/BPTc/81bH67O9T6ug6LHMALKt8IzHfzEC5y8yvgKCYofTrJ1CewQUC8p3GEFBhohkpKw9lCURmAAhR3kXg2wC8t8XAVxh0xGDvNzC9mmmeknNzc//r5MR47vL8ktmYIOb3gegqAO9ukX2WQQ8oVTmQBRB9A1DMl65hg7TjH1gxiPEiDNpvNOiZfkNXiNIWg3ElG7QbjKsjTj9BHj/g1quP9wNEXwBYVulLYPpaxIC/EzA9ev6p6aNHj77Wj2HtxlqWfSsYewHkVn4n/rKU1a+nnSs1AJYoHwD446tvnaZh8LSUzp/TGhNn3MTF5U1Lo95eMGkgwod+IlVlV5zxrTKpABDCfpGA8VDZCfL45n5DManx4dKbAfBWfyMF5pRyJpLqSQyAJWyOTPLCcoOvWVio/jXpxFnI53Klt4+YpHPApU19UjmJfEokXBTlQwzeESDOB5Sq7s7CkX51CFF6lED+EiDQU66q7IyrMzYA0YTHwP1KOXfGnWQYckLY9xHwWX+uBIkxFgBh9n0wcIQOSlX5UBZOjY1Nbm40sKRU7Z9Z6LNE+ZcAfzAwE3ukdPb10tsTgDDZ/CJMNHXDwDbXdf7VS3G338O1+20A1/lyjIfIxL2u6+jKMPVTLNobPQ+zzYqSPL62V3LuCYAl7IPNIofBO5WqPpXawnBgWDU+GtVD4L2uqmpQ+nqEKO0g0KFQyRNSOUFEdHi6AhA1lMDfc1X1jr6sCwdbhdLTYZm7qo75iJyvvj8T/VbpW806gUG7u5XNXQGwhP1MWNufbHhUrtcrL2Vh4CAjQNvnF0vn8W/DivFZqZwrE0eAPtWBeX848F6pnC9k4bzWMagcELVvTeImuqnTKbJjBBSFPRseaU+Yy43ySy/X/pIVAE09We8CrfZZlv1kcIAiR6pK2+N5WwAKhW1jBnlBuBP2Sensydr5YegTwv4MAd/33TD4CtetPtc6b1sArELpThBNa+FeSWQYjqSdYyw3NeGZxp+6LeMOAJQfA/G1AE5dcLKxsXa89p+0RpzpcZaw6zrtdDostQdA2CcBbADQcx890w72mt8q2D8C4RPBcqZLpawcjY45DYBifuoqNoynfSHGHjnfu5zsZUS73/2dwKBvwMBxKZ3Pp9ERZ4xVKH8axP49IgNfVcr5SlcALMu+CYwfBImDply3UoszUVIZS9gOgNKgE22xOPku9szgrTP2yfm1Cf20CBDCvoeAu7W8YTbeduxY7W9Jnesln8+XLzENnovILUnljPYal+b38fHx0eWlDa/7LxT4uaucj3SPgMhVV9LLhbgGtgEAg5pL22QJW1/TvRPAc1I5V/QAwK4CmALouFSVi+I6lUSuDQCvSuVsTKIjiexqQYQFqZw1vYfTloAl7FcBvAlATSpnKslEcWWHDYAQ9v0E3AHQSakqF/aKgHUPwHpfAqv3/YNKTMNeAomS4BnaBgeWBJNvg0MohIYZAYkLoWgpTKBbXFXR3ZdMn6ECUCjdwEQPxy6Fw8Lh3wAuBOFxKR19Ksz0GSYAQpQfJvANAQCNsVbWSdvToBD2jwnwuz4j55kb5+ae11tjZs8wAYgkwLZ1Taf7gJUTFIivl7L6SGbeAxgWAJqm4xmef5hj8BeVqn6z1Y+2AORyl+dHzMa8L8x4RM47178RAbCs8ufA/B1tu+EZk+3IGh0vRYWwnydgmx6c9bF4GBGwdevWDa//9/xZECY0v8hVju9LrAjwE2HkWpzBM0pVb8kqCoYBQFHYdzNwj29zmmvxcDdoNkYyjYJBA2BZ9sVgzAJ4C4B0jRENQLSDk2UUDPo+wCqUvwviu4IU1kdrLIyCleZonG5rnGWypu8QxGhmdw/RbnacS92e3eEWhSeWG2xnQYmxCvZ+EG4Mdhq+S85X74sDXjeZsOWm7xp93lCcF9YTgCAhrqHDvSCV00peTGV7UdifgoETrus8mUpByyBL2H9c4QvFZInEAiBYCqvH5LOJH9TEIMoTAuLT5mIDECTFVXrc2cQTivKDktLlEgEQJsUITY4OksGf7Jcykzb8NSWGPfrhCi8ISHy7nBgAbexauhzqAO/JgjqTBAhNhQHowRU+UEJ6XHOuVAC0SYz6sDFjGMbMoDpJTYN1DTFieLcx6PYVwGImvHYApwYgAMEnL4f0uUD9oIC4ZMvkOxojpmala8cvWHU+Hh2uU3T1BYC/HNrR5YNGpGaB/drzlh6r1//wjyThHZUtFsofZfB2ED7c3N/D3888XT5qaJcPJrTYYQb/zDCMCtHy8U79xnz+PW82zdHNAFtgXAfCDrDfpIk+Z9cHE61vNuYnM375C7BuvOpdZXP4ds0uoXp2fzLTarhf76OxEzC2g3h7SLhIshJeA9NhwDvswTw0Pz97LMnguLJ954C4E/m3zaaRY8YWAuUA1l99NL/8WABogcELRHiZGt6CW//dkbi6+5EbGgD9GDnIsecAGCS6bwTd6z4C/g9CBtJuKpUcGgAAAABJRU5ErkJggg==;" vertex="1" parent="1">
          <mxGeometry x="62" y="137" width="16" height="16" as="geometry" />
        </mxCell>
        <mxCell id="iDYcILabEgGecgKMrOln-19" value="纪小康 | 男 | 2001 | 安徽芜湖" style="text;strokeColor=none;align=left;fillColor=none;html=1;verticalAlign=middle;whiteSpace=wrap;rounded=0;" vertex="1" parent="1">
          <mxGeometry x="81" y="128" width="158" height="30" as="geometry" />
        </mxCell>
        <mxCell id="iDYcILabEgGecgKMrOln-22" value="教育信息" style="text;html=1;strokeColor=none;fillColor=none;align=left;verticalAlign=middle;whiteSpace=wrap;rounded=0;fontFamily=Source Han Sans;fontSize=21;fontColor=#13273E;fontStyle=1" vertex="1" parent="1">
          <mxGeometry x="62" y="909.14" width="88" height="30" as="geometry" />
        </mxCell>
        <mxCell id="iDYcILabEgGecgKMrOln-24" value="" style="endArrow=none;html=1;rounded=0;fontFamily=宋体-简;fontSize=16;fontColor=#2B4259;strokeColor=#404964;" edge="1" parent="1">
          <mxGeometry width="50" height="50" relative="1" as="geometry">
            <mxPoint x="59" y="940.71" as="sourcePoint" />
            <mxPoint x="259" y="940.71" as="targetPoint" />
            <Array as="points">
              <mxPoint x="147" y="940.94" />
            </Array>
          </mxGeometry>
        </mxCell>
        <mxCell id="iDYcILabEgGecgKMrOln-25" value="2019.09 - 2023.06&lt;br&gt;" style="text;strokeColor=none;align=center;fillColor=none;html=1;verticalAlign=middle;whiteSpace=wrap;rounded=0;fontSize=13;" vertex="1" parent="1">
          <mxGeometry x="56" y="952" width="140" height="30" as="geometry" />
        </mxCell>
        <mxCell id="iDYcILabEgGecgKMrOln-26" value="安徽信息工程学院" style="text;strokeColor=none;align=center;fillColor=none;html=1;verticalAlign=middle;whiteSpace=wrap;rounded=0;fontSize=13;" vertex="1" parent="1">
          <mxGeometry x="65" y="982" width="120" height="30" as="geometry" />
        </mxCell>
        <mxCell id="iDYcILabEgGecgKMrOln-27" value="计算机科学与技术 本科 23届" style="text;strokeColor=none;align=center;fillColor=none;html=1;verticalAlign=middle;whiteSpace=wrap;rounded=0;fontSize=13;" vertex="1" parent="1">
          <mxGeometry x="62" y="1012" width="178" height="30" as="geometry" />
        </mxCell>
        <mxCell id="iDYcILabEgGecgKMrOln-31" value="&lt;div&gt;• &lt;span style=&quot;mso-spacerun:&#39;yes&#39;;font-size:9pt;font-family:微软雅黑;color:rgb(38,38,38);&quot;&gt;能够编写语义化的 HTML，掌握 CSS、Sass 基础，了解 H5 新特性和 CSS3 新增属性。&lt;/span&gt;&lt;/div&gt;" style="text;strokeColor=none;align=left;fillColor=none;html=1;verticalAlign=middle;whiteSpace=wrap;rounded=0;fontSize=13;" vertex="1" parent="1">
          <mxGeometry x="303" y="95" width="510" height="30" as="geometry" />
        </mxCell>
        <mxCell id="iDYcILabEgGecgKMrOln-32" value="&lt;div&gt;•&amp;nbsp;熟悉 JavaScript、ES6 常用语法，了解 TypeScript。&lt;/div&gt;" style="text;strokeColor=none;align=left;fillColor=none;html=1;verticalAlign=middle;whiteSpace=wrap;rounded=0;fontSize=13;" vertex="1" parent="1">
          <mxGeometry x="303" y="120" width="489" height="30" as="geometry" />
        </mxCell>
        <mxCell id="iDYcILabEgGecgKMrOln-33" value="&lt;div&gt;•&amp;nbsp;熟悉 Vue2/3 基本使用，能使用 axios&lt;/div&gt;" style="text;strokeColor=none;align=left;fillColor=none;html=1;verticalAlign=middle;whiteSpace=wrap;rounded=0;fontSize=13;" vertex="1" parent="1">
          <mxGeometry x="303" y="145" width="484" height="30" as="geometry" />
        </mxCell>
        <mxCell id="iDYcILabEgGecgKMrOln-34" value="&lt;div&gt;•&amp;nbsp;有微信小程序、uniapp 开发经验，能使用 PHP。&lt;/div&gt;" style="text;strokeColor=none;align=left;fillColor=none;html=1;verticalAlign=middle;whiteSpace=wrap;rounded=0;fontSize=13;" vertex="1" parent="1">
          <mxGeometry x="303" y="220" width="484" height="30" as="geometry" />
        </mxCell>
        <mxCell id="iDYcILabEgGecgKMrOln-35" value="&lt;div&gt;•&amp;nbsp;掌握 Babel、webpack、vite、npm 等工具使用。&lt;/div&gt;" style="text;strokeColor=none;align=left;fillColor=none;html=1;verticalAlign=middle;whiteSpace=wrap;rounded=0;fontSize=13;" vertex="1" parent="1">
          <mxGeometry x="303" y="195" width="484" height="30" as="geometry" />
        </mxCell>
        <mxCell id="iDYcILabEgGecgKMrOln-36" value="&lt;div&gt;•&amp;nbsp;掌握 ElementUI/Plus、Vant 组件库基本使用。&lt;/div&gt;" style="text;strokeColor=none;align=left;fillColor=none;html=1;verticalAlign=middle;whiteSpace=wrap;rounded=0;fontSize=13;" vertex="1" parent="1">
          <mxGeometry x="303" y="170" width="484" height="30" as="geometry" />
        </mxCell>
        <mxCell id="iDYcILabEgGecgKMrOln-38" value="&lt;div&gt;• &lt;span style=&quot;mso-spacerun:&#39;yes&#39;;font-size:9pt;font-family:微软雅黑;color:rgb(38,38,38);&quot;&gt;了解前端模块化规范，了解 MVC、MVVM 分层思想。&lt;/span&gt;&lt;/div&gt;" style="text;strokeColor=none;align=left;fillColor=none;html=1;verticalAlign=middle;whiteSpace=wrap;rounded=0;fontSize=13;" vertex="1" parent="1">
          <mxGeometry x="303" y="245" width="344" height="30" as="geometry" />
        </mxCell>
        <mxCell id="iDYcILabEgGecgKMrOln-39" value="&lt;div&gt;• &lt;span style=&quot;mso-spacerun:&#39;yes&#39;;font-size:9pt;font-family:微软雅黑;color:rgb(38,38,38);&quot;&gt;掌握 Git 基本操作、了解开发流程规范、&lt;/span&gt;&lt;span style=&quot;mso-spacerun:&#39;yes&#39;;font-size:9pt;font-family:微软雅黑;color:rgb(18,18,18);&quot;&gt;拥有良好的代码风格、能快速理解设计需求&lt;/span&gt;&lt;span style=&quot;mso-spacerun:&#39;yes&#39;;font-size:9pt;font-family:微软雅黑;color:rgb(38,38,38);&quot;&gt;。&amp;nbsp;&lt;/span&gt;&lt;/div&gt;" style="text;strokeColor=none;align=left;fillColor=none;html=1;verticalAlign=middle;whiteSpace=wrap;rounded=0;fontSize=13;" vertex="1" parent="1">
          <mxGeometry x="303" y="270" width="487" height="30" as="geometry" />
        </mxCell>
        <mxCell id="iDYcILabEgGecgKMrOln-40" value="&lt;div&gt;• &lt;span style=&quot;mso-spacerun:&#39;yes&#39;;font-size:9pt;font-family:微软雅黑;color:rgb(38,38,38);&quot;&gt;喜欢分享技术，关注开源。GitHub：&lt;/span&gt;&lt;span style=&quot;mso-spacerun:&#39;yes&#39;;font-size:9pt;font-family:微软雅黑;color:rgb(38,38,255);&quot;&gt;AnnGreen1 &lt;/span&gt;&lt;span style=&quot;mso-spacerun:&#39;yes&#39;;font-size:9pt;font-family:微软雅黑;color:rgb(38,38,38);&quot;&gt;、CSDN：&lt;/span&gt;&lt;span style=&quot;mso-spacerun:&#39;yes&#39;;font-size:9pt;font-family:微软雅黑;color:rgb(0,0,255);&quot;&gt;weixin_47896488&lt;/span&gt;&lt;span style=&quot;mso-spacerun:&#39;yes&#39;;font-size:9pt;font-family:微软雅黑;color:rgb(38,38,38);&quot;&gt;。&amp;nbsp;&lt;/span&gt;&lt;/div&gt;" style="text;strokeColor=none;align=left;fillColor=none;html=1;verticalAlign=middle;whiteSpace=wrap;rounded=0;fontSize=13;" vertex="1" parent="1">
          <mxGeometry x="303" y="295" width="472" height="30" as="geometry" />
        </mxCell>
        <mxCell id="iDYcILabEgGecgKMrOln-43" value="&lt;div&gt;• &lt;span style=&quot;mso-spacerun:&#39;yes&#39;;font-size:9pt;font-family:微软雅黑;color:rgb(38,38,38);&quot;&gt;参与 &lt;/span&gt;&lt;span style=&quot;mso-spacerun:&#39;yes&#39;;font-size:9pt;font-family:MicrosoftYaHei-Bold;color:rgb(38,38,38);font-weight:bold;&quot;&gt;科大讯飞 &lt;/span&gt;&lt;span style=&quot;mso-spacerun:&#39;yes&#39;;font-size:9pt;font-family:微软雅黑;color:rgb(38,38,38);&quot;&gt;AI 学习机业务后台前端开发工作&lt;/span&gt;&lt;/div&gt;" style="text;strokeColor=none;align=left;fillColor=none;html=1;verticalAlign=middle;whiteSpace=wrap;rounded=0;fontSize=13;" vertex="1" parent="1">
          <mxGeometry x="306" y="385" width="364" height="30" as="geometry" />
        </mxCell>
        <mxCell id="iDYcILabEgGecgKMrOln-44" value="&lt;div&gt;• &lt;span style=&quot;mso-spacerun:&#39;yes&#39;;font-size:9pt;font-family:微软雅黑;color:rgb(38,38,38);&quot;&gt;独立开发联调自测前端项目，通过与导师沟通解决遇到的技术问题。&amp;nbsp;&lt;/span&gt;&lt;/div&gt;" style="text;strokeColor=none;align=left;fillColor=none;html=1;verticalAlign=middle;whiteSpace=wrap;rounded=0;fontSize=13;" vertex="1" parent="1">
          <mxGeometry x="306" y="410" width="430" height="30" as="geometry" />
        </mxCell>
        <mxCell id="iDYcILabEgGecgKMrOln-45" value="&lt;div&gt;• &lt;span style=&quot;font-size: 9pt; font-family: 微软雅黑;&quot;&gt;参与到需求评审、接口评审、代码评审等软件开发周期，积极联调自测项目。&amp;nbsp;&lt;/span&gt;&lt;/div&gt;" style="text;strokeColor=none;align=center;fillColor=none;html=1;verticalAlign=middle;whiteSpace=wrap;rounded=0;fontSize=13;" vertex="1" parent="1">
          <mxGeometry x="306" y="435" width="424" height="30" as="geometry" />
        </mxCell>
        <mxCell id="iDYcILabEgGecgKMrOln-46" value="&lt;div&gt;➢&amp;nbsp;&lt;span style=&quot;color: rgb(38, 38, 38); font-family: 微软雅黑; font-size: 9pt; background-color: initial;&quot;&gt;技术栈：Vue2+ElementUI+axios+Sass&lt;/span&gt;&lt;/div&gt;" style="text;strokeColor=none;align=left;fillColor=none;html=1;verticalAlign=middle;whiteSpace=wrap;rounded=0;fontSize=13;" vertex="1" parent="1">
          <mxGeometry x="303" y="526" width="317" height="34" as="geometry" />
        </mxCell>
        <mxCell id="iDYcILabEgGecgKMrOln-47" value="&lt;div&gt;➢&amp;nbsp;负责项目组件划分，规划项目组件通信，提升组件复用效率。&lt;/div&gt;" style="text;strokeColor=none;align=left;fillColor=none;html=1;verticalAlign=middle;whiteSpace=wrap;rounded=0;fontSize=13;" vertex="1" parent="1">
          <mxGeometry x="303" y="544" width="377" height="34" as="geometry" />
        </mxCell>
        <mxCell id="iDYcILabEgGecgKMrOln-48" value="&lt;div&gt;➢&amp;nbsp;利用现有条件实现操作鉴权功能，获取特定时间戳。&lt;/div&gt;" style="text;strokeColor=none;align=left;fillColor=none;html=1;verticalAlign=middle;whiteSpace=wrap;rounded=0;fontSize=13;" vertex="1" parent="1">
          <mxGeometry x="303" y="572.5" width="353.5" height="34" as="geometry" />
        </mxCell>
        <mxCell id="iDYcILabEgGecgKMrOln-49" value="&lt;div&gt;➢&amp;nbsp;全程参与独立开发前端部分，实现对应用开发者和应用的管理，平台如期上&lt;/div&gt;&lt;div&gt;&lt;br&gt;&lt;/div&gt;&lt;div&gt;&lt;span style=&quot;mso-spacerun:&#39;yes&#39;;font-size:9pt;font-family:微软雅黑;color:rgb(38,38,38);&quot;&gt;&amp;nbsp; &amp;nbsp; &amp;nbsp;线。认识到开发规范重要性，简单编写程序并不是软件工程。&amp;nbsp;&lt;/span&gt;&lt;/div&gt;" style="text;strokeColor=none;align=left;fillColor=none;html=1;verticalAlign=middle;whiteSpace=wrap;rounded=0;fontSize=13;" vertex="1" parent="1">
          <mxGeometry x="303" y="605" width="454" height="35" as="geometry" />
        </mxCell>
        <mxCell id="iDYcILabEgGecgKMrOln-50" value="&lt;div&gt;➢&amp;nbsp;技术栈：Vue3+TypeScript+axios+ElementPlus+Sass&lt;/div&gt;" style="text;strokeColor=none;align=left;fillColor=none;html=1;verticalAlign=middle;whiteSpace=wrap;rounded=0;fontSize=13;" vertex="1" parent="1">
          <mxGeometry x="303" y="689.77" width="370" height="34" as="geometry" />
        </mxCell>
        <mxCell id="iDYcILabEgGecgKMrOln-51" value="&lt;div&gt;➢&amp;nbsp;使用浏览器本地存储进行细颗粒度权限分配及检验。&lt;/div&gt;" style="text;strokeColor=none;align=left;fillColor=none;html=1;verticalAlign=middle;whiteSpace=wrap;rounded=0;fontSize=13;" vertex="1" parent="1">
          <mxGeometry x="303" y="758.77" width="350" height="34" as="geometry" />
        </mxCell>
        <mxCell id="iDYcILabEgGecgKMrOln-52" value="&lt;div&gt;➢&amp;nbsp;参与视频资源上传开发、课时包审批、基础资源维护等部分开发。&lt;/div&gt;" style="text;strokeColor=none;align=left;fillColor=none;html=1;verticalAlign=middle;whiteSpace=wrap;rounded=0;fontSize=13;" vertex="1" parent="1">
          <mxGeometry x="303" y="860.27" width="398.75" height="34" as="geometry" />
        </mxCell>
        <mxCell id="iDYcILabEgGecgKMrOln-53" value="&lt;div&gt;➢&amp;nbsp;了解到基于 vite 搭建项目整体架构和封装 axios，了解到 TypeScript 和选项&lt;/div&gt;&lt;div&gt;&lt;span style=&quot;mso-spacerun:&#39;yes&#39;;font-size:9pt;font-family:微软雅黑;color:rgb(38,38,38);&quot;&gt;式开发基本使用。&amp;nbsp;&lt;/span&gt;&lt;/div&gt;" style="text;strokeColor=none;align=left;fillColor=none;html=1;verticalAlign=middle;whiteSpace=wrap;rounded=0;fontSize=13;" vertex="1" parent="1">
          <mxGeometry x="303" y="723.77" width="470" height="34" as="geometry" />
        </mxCell>
      </root>
    </mxGraphModel>
  </diagram>
</mxfile>
